<svg
    viewBox="0 0 20 20"
    height="20"
    width="20"
    xmlns="http://www.w3.org/2000/svg"
    fill="currentColor"
>
    <path d="M 7.725 19.872 a 0.718 0.718 0 0 1 -0.607 -0.328 a 0.725 0.725 0 0 1 -0.118 -0.397 V 16 H 3.625 A 2.63 2.63 0 0 1 1 13.375 v -9.75 A 2.629 2.629 0 0 1 3.625 1 h 12.75 A 2.63 2.63 0 0 1 19 3.625 v 9.75 A 2.63 2.63 0 0 1 16.375 16 h -4.161 l -4 3.681 a 0.725 0.725 0 0 1 -0.489 0.191 Z M 3.625 2.25 A 1.377 1.377 0 0 0 2.25 3.625 v 9.75 a 1.377 1.377 0 0 0 1.375 1.375 h 4 a 0.625 0.625 0 0 1 0.625 0.625 v 2.575 l 3.3 -3.035 a 0.628 0.628 0 0 1 0.424 -0.165 h 4.4 a 1.377 1.377 0 0 0 1.375 -1.375 v -9.75 a 1.377 1.377 0 0 0 -1.374 -1.375 H 3.625 Z"/>
</svg>