<?xml version="1.0" standalone="no"?>
<!DOCTYPE svg PUBLIC "-//W3C//DTD SVG 20010904//EN"
 "http://www.w3.org/TR/2001/REC-SVG-20010904/DTD/svg10.dtd">
<svg version="1.0" xmlns="http://www.w3.org/2000/svg"
 width="512.000000pt" height="512.000000pt" viewBox="0 0 512.000000 512.000000"
 preserveAspectRatio="xMidYMid meet">

<g transform="translate(0.000000,512.000000) scale(0.100000,-0.100000)"
fill="#000000" stroke="none">
<path d="M2323 4549 c-356 -41 -732 -197 -1008 -417 -594 -473 -866 -1232
-714 -1987 28 -141 90 -319 159 -464 313 -648 960 -1082 1670 -1119 581 -31
1105 158 1509 543 829 790 829 2120 0 2910 -309 295 -719 485 -1154 535 -104
11 -358 11 -462 -1z m477 -223 c217 -29 377 -78 575 -176 77 -39 183 -100 235
-137 123 -88 327 -292 413 -413 81 -114 194 -339 236 -470 277 -855 -102
-1775 -894 -2173 -148 -73 -357 -139 -540 -168 -118 -19 -418 -17 -540 4 -736
125 -1300 654 -1459 1368 -130 586 36 1194 443 1621 263 277 607 463 973 527
62 11 129 22 148 24 87 9 315 5 410 -7z"/>
<path d="M2493 3450 c-80 -18 -118 -72 -111 -157 4 -46 10 -60 41 -91 34 -33
42 -37 104 -40 58 -3 73 0 103 20 116 78 74 254 -65 271 -22 2 -55 1 -72 -3z"/>
<path d="M2464 2856 c-17 -8 -40 -26 -52 -41 -22 -28 -22 -29 -22 -579 0 -535
1 -552 20 -584 56 -92 222 -75 250 26 6 23 10 231 10 556 0 503 -1 521 -20
562 -33 67 -111 92 -186 60z"/>
</g>
</svg>
