<svg
                    xmlns="http://www.w3.org/2000/svg"
                    viewBox="0 0 20 20"
                >
                    <title id="undefined-title" />
                    <g>
                        <path d="M8,2 C8.553,2 9,2.447 9,3 L9,5 C9,5.553 8.553,6 8,6 L6,6 C5.447,6 5,5.553 5,5 L5,3 C5,2.447 5.447,2 6,2 L8,2 Z M14,2 C14.553,2 15,2.447 15,3 L15,5 C15,5.553 14.553,6 14,6 L12,6 C11.447,6 11,5.553 11,5 L11,3 C11,2.447 11.447,2 12,2 L14,2 Z M8,8 C8.553,8 9,8.447 9,9 L9,11 C9,11.553 8.553,12 8,12 L6,12 C5.447,12 5,11.553 5,11 L5,9 C5,8.447 5.447,8 6,8 L8,8 Z M14,8 C14.553,8 15,8.447 15,9 L15,11 C15,11.553 14.553,12 14,12 L12,12 C11.447,12 11,11.553 11,11 L11,9 C11,8.447 11.447,8 12,8 L14,8 Z M8,14 C8.553,14 9,14.447 9,15 L9,17 C9,17.553 8.553,18 8,18 L6,18 C5.447,18 5,17.553 5,17 L5,15 C5,14.447 5.447,14 6,14 L8,14 Z M14,14 C14.553,14 15,14.447 15,15 L15,17 C15,17.553 14.553,18 14,18 L12,18 C11.447,18 11,17.553 11,17 L11,15 C11,14.447 11.447,14 12,14 L14,14 Z" />
                    </g>
                </svg>