<svg className="_3fjztH0o3WW8ugsD8VUpdG" viewBox="0 0 20 20" version="1.1">
                    <g stroke="none">
                        <g transform="translate(-34.000000, -136.000000)" fill="inherit">
                            <path d="M45.2,147.2 L48.8,147.2 C49.46272,147.2 50,146.66272 50,146 C50,145.33728 49.46272,144.8 48.8,144.8 L45.2,144.8 L45.2,141.2 C45.2,140.53728 44.66272,140 44,140 C43.33728,140 42.8,140.53728 42.8,141.2 L42.8,144.8 L39.2,144.8 C38.53728,144.8 38,145.33728 38,146 C38,146.66272 38.53728,147.2 39.2,147.2 L42.8,147.2 L42.8,150.8 C42.8,151.46272 43.33728,152 44,152 C44.66272,152 45.2,151.46272 45.2,150.8 L45.2,147.2 Z" />
                        </g>
                    </g>
                </svg>