 <svg
                                    className="_1RI3AZPuym8dOTJt-TRI38 "
                                    xmlns="http://www.w3.org/2000/svg"
                                    viewBox="0 0 40 40"
                                >
                                    <path d="M20 2.5C10.3 2.5 2.5 10.3 2.5 20c0 9.7 7.8 17.5 17.5 17.5S37.5 29.7 37.5 20C37.5 10.3 29.7 2.5 20 2.5zM24.2 27.7L20 23.5l-4.2 4.2c-1.1 1.1-2.5 1.1-3.5 0-1.1-1.1-1.1-2.4 0-3.5l4.2-4.2-4.2-4.2c-1.1-1.1-1.1-2.5 0-3.5 1.1-1.1 2.4-1.1 3.5 0l4.2 4.2 4.2-4.2c1.1-1.1 2.5-1.1 3.5 0 1.1 1.1 1.1 2.4 0 3.5L23.5 20l4.2 4.2c1.1 1.1 1.1 2.5 0 3.5C26.7 28.8 25.3 28.8 24.2 27.7z" />
                                </svg>